# xmcd
#
# Track frame offsets: 
#        150
#        15590
#        31285
#        51777
#
# Disc length: 932 seconds
#
# Revision: 3
# Processed by: cddbd v1.4PL0 Copyright (c) Steve Scherf et al.
# Submitted via: ExactAudioCopy v0.90a11
#
DISCID=2603a204
DTITLE=Reba McEntire and Brooks and Dunn - Exclusive Collector's Edition
DYEAR=1900
DGENRE=
TTITLE0=All Of You (Reba)
TTITLE1=Steady As She Goes (Brooks and Dunn)
TTITLE2=I'll Take Your Heart (Reba)
TTITLE3=What It's Come Down To (Brooks and Dunn)
EXTD=Copyright © 1998 MCA Records. Never before released material.
EXTT0=
EXTT1=
EXTT2=
EXTT3=
PLAYORDER=
